<svg width="30" height="30" viewBox="0 0 30 30" fill="none" xmlns="http://www.w3.org/2000/svg">
<path fill-rule="evenodd" clip-rule="evenodd" d="M28.2418 29.1965C28.6324 29.587 29.2655 29.587 29.656 29.1965C30.0466 28.806 30.0466 28.1728 29.656 27.7823L16.9266 15.0529L29.4247 2.55477C29.8153 2.16425 29.8153 1.53108 29.4247 1.14056C29.0342 0.750036 28.4011 0.750035 28.0105 1.14056L15.5124 13.6387L2.78598 0.912225C2.39546 0.521701 1.7623 0.5217 1.37177 0.912225C0.981246 1.30275 0.981246 1.93591 1.37177 2.32644L14.0982 15.0529L1.14047 28.0106C0.749945 28.4011 0.749945 29.0343 1.14047 29.4248C1.53099 29.8154 2.16416 29.8154 2.55468 29.4248L15.5124 16.4671L28.2418 29.1965Z" fill="#2F2F2F"/>
</svg>
