<svg width="30" height="30" viewBox="0 0 30 30" fill="none" xmlns="http://www.w3.org/2000/svg">
<path d="M15.0049 0C8.74253 0 6.91103 0.00646208 6.55502 0.036003C5.26988 0.142858 4.47018 0.34526 3.59896 0.779143C2.92755 1.11263 2.39804 1.4992 1.87544 2.0411C0.923698 3.02933 0.346883 4.24513 0.138077 5.69033C0.0365572 6.39193 0.00702432 6.53502 0.00102545 10.1187C-0.00128181 11.3133 0.00102545 12.8854 0.00102545 14.9941C0.00102545 21.2531 0.00794723 23.0833 0.0379416 23.4387C0.141768 24.6896 0.337885 25.4765 0.753192 26.3374C1.54689 27.9852 3.06276 29.2222 4.84858 29.6838C5.46692 29.8431 6.14987 29.9308 7.02663 29.9723C7.3981 29.9885 11.1843 30 14.9728 30C18.7613 30 22.5499 29.9954 22.9121 29.9769C23.9273 29.9292 24.5168 29.85 25.1686 29.6815C26.0541 29.4544 26.8793 29.0366 27.5867 28.4574C28.294 27.8782 28.8665 27.1516 29.264 26.3282C29.6712 25.4881 29.8777 24.6711 29.9712 23.4855C29.9915 23.227 30 19.1058 30 14.9902C30 10.8738 29.9908 6.76026 29.9705 6.50178C29.8759 5.29706 29.6694 4.487 29.249 3.63077C28.9041 2.92986 28.521 2.40643 27.965 1.87124C26.9729 0.923155 25.7593 0.346183 24.3128 0.13755C23.6121 0.0362338 23.4725 0.0062313 19.8871 0H15.0049Z" fill="url(#paint0_radial)"/>
<path d="M15.0049 0C8.74253 0 6.91103 0.00646208 6.55502 0.036003C5.26988 0.142858 4.47018 0.34526 3.59896 0.779143C2.92755 1.11263 2.39804 1.4992 1.87544 2.0411C0.923698 3.02933 0.346883 4.24513 0.138077 5.69033C0.0365572 6.39193 0.00702432 6.53502 0.00102545 10.1187C-0.00128181 11.3133 0.00102545 12.8854 0.00102545 14.9941C0.00102545 21.2531 0.00794723 23.0833 0.0379416 23.4387C0.141768 24.6896 0.337885 25.4765 0.753192 26.3374C1.54689 27.9852 3.06276 29.2222 4.84858 29.6838C5.46692 29.8431 6.14987 29.9308 7.02663 29.9723C7.3981 29.9885 11.1843 30 14.9728 30C18.7613 30 22.5499 29.9954 22.9121 29.9769C23.9273 29.9292 24.5168 29.85 25.1686 29.6815C26.0541 29.4544 26.8793 29.0366 27.5867 28.4574C28.294 27.8782 28.8665 27.1516 29.264 26.3282C29.6712 25.4881 29.8777 24.6711 29.9712 23.4855C29.9915 23.227 30 19.1058 30 14.9902C30 10.8738 29.9908 6.76026 29.9705 6.50178C29.8759 5.29706 29.6694 4.487 29.249 3.63077C28.9041 2.92986 28.521 2.40643 27.965 1.87124C26.9729 0.923155 25.7593 0.346183 24.3128 0.13755C23.6121 0.0362338 23.4725 0.0062313 19.8871 0H15.0049Z" fill="url(#paint1_radial)"/>
<path d="M14.9984 3.9234C11.9906 3.9234 11.6132 3.93656 10.4319 3.99033C9.25285 4.04433 8.44808 4.23104 7.7439 4.50499C7.0155 4.78794 6.39762 5.16643 5.78204 5.7824C5.166 6.39815 4.78761 7.0162 4.50382 7.74457C4.22926 8.44917 4.04237 9.25439 3.9893 10.4333C3.9367 11.6149 3.92285 11.9927 3.92285 15.0013C3.92285 18.0098 3.93623 18.3862 3.98976 19.5679C4.04398 20.7472 4.23064 21.5522 4.50428 22.2566C4.78738 22.9852 5.16577 23.6032 5.78158 24.219C6.39693 24.8352 7.01481 25.2146 7.74275 25.4975C8.44739 25.7715 9.25239 25.9582 10.4312 26.0122C11.6125 26.066 11.9897 26.0791 14.9972 26.0791C18.0052 26.0791 18.3815 26.066 19.5628 26.0122C20.7419 25.9582 21.5475 25.7715 22.2522 25.4975C22.9804 25.2146 23.5973 24.8352 24.2127 24.219C24.8287 23.6032 25.2071 22.9852 25.4909 22.2568C25.7631 21.5522 25.95 20.747 26.0054 19.5681C26.0585 18.3865 26.0723 18.0098 26.0723 15.0013C26.0723 11.9927 26.0585 11.6151 26.0054 10.4335C25.95 9.25416 25.7631 8.44917 25.4909 7.7448C25.2071 7.0162 24.8287 6.39815 24.2127 5.7824C23.5966 5.1662 22.9806 4.78771 22.2515 4.50499C21.5455 4.23104 20.7402 4.04433 19.5612 3.99033C18.3799 3.93656 18.0038 3.9234 14.9952 3.9234H14.9984ZM14.0049 5.91972C14.2998 5.91926 14.6288 5.91972 14.9984 5.91972C17.9554 5.91972 18.3058 5.93034 19.4736 5.98342C20.5533 6.03281 21.1394 6.21329 21.5298 6.36492C22.0466 6.5657 22.4151 6.80572 22.8025 7.19345C23.1901 7.58117 23.43 7.95044 23.6312 8.4674C23.7828 8.85744 23.9635 9.44364 24.0126 10.5237C24.0657 11.6915 24.0772 12.0423 24.0772 14.9987C24.0772 17.9551 24.0657 18.3059 24.0126 19.4737C23.9632 20.5538 23.7828 21.14 23.6312 21.5301C23.4305 22.047 23.1901 22.4151 22.8025 22.8026C22.4148 23.1903 22.0468 23.4304 21.5298 23.6312C21.1399 23.7835 20.5533 23.9635 19.4736 24.0129C18.3061 24.066 17.9554 24.0775 14.9984 24.0775C12.0412 24.0775 11.6907 24.066 10.5232 24.0129C9.44343 23.963 8.85739 23.7825 8.46677 23.6309C7.94994 23.4301 7.58078 23.1901 7.19316 22.8024C6.80554 22.4147 6.56559 22.0463 6.36439 21.5291C6.21281 21.1391 6.03215 20.5529 5.983 19.4728C5.92994 18.305 5.91932 17.9542 5.91932 14.996C5.91932 12.0377 5.92994 11.6888 5.983 10.521C6.03238 9.44087 6.21281 8.85467 6.36439 8.46417C6.56513 7.9472 6.80554 7.57794 7.19316 7.19022C7.58078 6.80249 7.94994 6.56247 8.46677 6.36122C8.85716 6.2089 9.44343 6.02889 10.5232 5.97927C11.5449 5.93311 11.9408 5.91926 14.0049 5.91695V5.91972ZM20.91 7.75911C20.6472 7.75911 20.3902 7.83709 20.1717 7.98318C19.9531 8.12927 19.7828 8.33691 19.6822 8.57984C19.5816 8.82278 19.5553 9.09009 19.6066 9.34797C19.658 9.60585 19.7846 9.84271 19.9705 10.0286C20.1564 10.2145 20.3932 10.3411 20.6511 10.3923C20.9089 10.4436 21.1761 10.4172 21.4189 10.3165C21.6618 10.2158 21.8693 10.0453 22.0153 9.82666C22.1613 9.60799 22.2391 9.35093 22.239 9.08799C22.239 8.35408 21.6438 7.75865 20.91 7.75865V7.75911ZM14.9984 9.31232C11.8575 9.31232 9.311 11.8595 9.311 15.0013C9.311 18.143 11.8575 20.6891 14.9984 20.6891C18.1393 20.6891 20.6851 18.143 20.6851 15.0013C20.6851 11.8595 18.139 9.31232 14.9982 9.31232H14.9984ZM14.9984 11.3086C17.0371 11.3086 18.69 12.9618 18.69 15.0013C18.69 17.0405 17.0371 18.6939 14.9984 18.6939C12.9595 18.6939 11.3068 17.0405 11.3068 15.0013C11.3068 12.9618 12.9595 11.3086 14.9984 11.3086Z" fill="white"/>
<defs>
<radialGradient id="paint0_radial" cx="0" cy="0" r="1" gradientUnits="userSpaceOnUse" gradientTransform="translate(7.96879 32.3106) rotate(-90) scale(29.7322 27.6533)">
<stop stop-color="#FFDD55"/>
<stop offset="0.1" stop-color="#FFDD55"/>
<stop offset="0.5" stop-color="#FF543E"/>
<stop offset="1" stop-color="#C837AB"/>
</radialGradient>
<radialGradient id="paint1_radial" cx="0" cy="0" r="1" gradientUnits="userSpaceOnUse" gradientTransform="translate(-5.02516 2.16115) rotate(78.6806) scale(13.2904 54.7837)">
<stop stop-color="#3771C8"/>
<stop offset="0.128" stop-color="#3771C8"/>
<stop offset="1" stop-color="#6600FF" stop-opacity="0"/>
</radialGradient>
</defs>
</svg>
