<svg width="132" height="45" viewBox="0 0 132 45" fill="none" xmlns="http://www.w3.org/2000/svg">
<path d="M11.3866 16.8V28H9.78663V23.008H3.35463V28H1.75463V16.8H3.35463V21.616H9.78663V16.8H11.3866ZM18.1276 19.44C19.301 19.44 20.197 19.728 20.8156 20.304C21.445 20.88 21.7596 21.7387 21.7596 22.88V28H20.3036V26.88C20.0476 27.2747 19.6796 27.5787 19.1996 27.792C18.7303 27.9947 18.1703 28.096 17.5196 28.096C16.5703 28.096 15.8076 27.8667 15.2316 27.408C14.6663 26.9493 14.3836 26.3467 14.3836 25.6C14.3836 24.8533 14.6556 24.256 15.1996 23.808C15.7436 23.3493 16.6076 23.12 17.7916 23.12H20.2236V22.816C20.2236 22.1547 20.0316 21.648 19.6476 21.296C19.2636 20.944 18.6983 20.768 17.9516 20.768C17.4503 20.768 16.9596 20.8533 16.4796 21.024C15.9996 21.184 15.5943 21.4027 15.2636 21.68L14.6236 20.528C15.061 20.176 15.5836 19.9093 16.1916 19.728C16.7996 19.536 17.445 19.44 18.1276 19.44ZM17.7756 26.912C18.3623 26.912 18.869 26.784 19.2956 26.528C19.7223 26.2613 20.0316 25.888 20.2236 25.408V24.224H17.8556C16.5543 24.224 15.9036 24.6613 15.9036 25.536C15.9036 25.9627 16.069 26.2987 16.3996 26.544C16.7303 26.7893 17.189 26.912 17.7756 26.912ZM35.5584 23.6C36.657 23.8773 37.2064 24.5653 37.2064 25.664C37.2064 26.4107 36.9237 26.9867 36.3584 27.392C35.8037 27.7973 34.9717 28 33.8624 28H29.7824V19.52H33.7184C34.721 19.52 35.505 19.712 36.0704 20.096C36.6357 20.4693 36.9184 21.0027 36.9184 21.696C36.9184 22.144 36.7957 22.5333 36.5504 22.864C36.3157 23.184 35.985 23.4293 35.5584 23.6ZM31.2864 23.168H33.5904C34.177 23.168 34.6197 23.0613 34.9184 22.848C35.2277 22.6347 35.3824 22.3253 35.3824 21.92C35.3824 21.1093 34.785 20.704 33.5904 20.704H31.2864V23.168ZM33.7504 26.816C34.3904 26.816 34.8704 26.7147 35.1904 26.512C35.5104 26.3093 35.6704 25.9947 35.6704 25.568C35.6704 25.1307 35.521 24.8053 35.2224 24.592C34.9344 24.3787 34.4757 24.272 33.8464 24.272H31.2864V26.816H33.7504ZM47.7545 23.808C47.7545 23.9253 47.7438 24.08 47.7225 24.272H40.8425C40.9385 25.0187 41.2638 25.6213 41.8185 26.08C42.3838 26.528 43.0825 26.752 43.9145 26.752C44.9278 26.752 45.7438 26.4107 46.3625 25.728L47.2105 26.72C46.8265 27.168 46.3465 27.5093 45.7705 27.744C45.2052 27.9787 44.5705 28.096 43.8665 28.096C42.9705 28.096 42.1758 27.9147 41.4825 27.552C40.7892 27.1787 40.2505 26.6613 39.8665 26C39.4932 25.3387 39.3065 24.592 39.3065 23.76C39.3065 22.9387 39.4878 22.1973 39.8505 21.536C40.2238 20.8747 40.7305 20.3627 41.3705 20C42.0212 19.6267 42.7518 19.44 43.5625 19.44C44.3732 19.44 45.0932 19.6267 45.7225 20C46.3625 20.3627 46.8585 20.8747 47.2105 21.536C47.5732 22.1973 47.7545 22.9547 47.7545 23.808ZM43.5625 20.736C42.8265 20.736 42.2078 20.96 41.7065 21.408C41.2158 21.856 40.9278 22.4427 40.8425 23.168H46.2825C46.1972 22.4533 45.9038 21.872 45.4025 21.424C44.9118 20.9653 44.2985 20.736 43.5625 20.736ZM55.1134 19.44C55.9347 19.44 56.6707 19.6213 57.3214 19.984C57.972 20.3467 58.4787 20.8533 58.8414 21.504C59.2147 22.1547 59.4014 22.9067 59.4014 23.76C59.4014 24.6133 59.2147 25.3707 58.8414 26.032C58.4787 26.6827 57.972 27.1893 57.3214 27.552C56.6707 27.9147 55.9347 28.096 55.1134 28.096C54.5054 28.096 53.9454 27.9787 53.4334 27.744C52.932 27.5093 52.5054 27.168 52.1534 26.72V31.104H50.6174V19.52H52.0894V20.864C52.4307 20.3947 52.8627 20.0427 53.3854 19.808C53.908 19.5627 54.484 19.44 55.1134 19.44ZM54.9854 26.752C55.5294 26.752 56.0147 26.6293 56.4414 26.384C56.8787 26.128 57.22 25.776 57.4654 25.328C57.7214 24.8693 57.8494 24.3467 57.8494 23.76C57.8494 23.1733 57.7214 22.656 57.4654 22.208C57.22 21.7493 56.8787 21.3973 56.4414 21.152C56.0147 20.9067 55.5294 20.784 54.9854 20.784C54.452 20.784 53.9667 20.912 53.5294 21.168C53.1027 21.4133 52.7614 21.76 52.5054 22.208C52.26 22.656 52.1374 23.1733 52.1374 23.76C52.1374 24.3467 52.26 24.8693 52.5054 25.328C52.7507 25.776 53.092 26.128 53.5294 26.384C53.9667 26.6293 54.452 26.752 54.9854 26.752ZM67.1278 28L64.6798 24.752L62.1998 28H60.4878L63.8318 23.664L60.6478 19.52H62.3598L64.6958 22.576L67.0158 19.52H68.6958L65.4958 23.664L68.8718 28H67.1278Z" fill="#2F2F2F"/>
<rect x="87.5" y="0.5" width="44" height="44" fill="white" stroke="black"/>
<path d="M103.137 25.3633L109.501 18.9993L115.865 25.3633" stroke="black" stroke-linecap="round"/>
</svg>
